<svg width="1728" height="1117" viewBox="0 0 1728 1117" fill="none" xmlns="http://www.w3.org/2000/svg">
<g style="mix-blend-mode:plus-darker">
<rect width="1728" height="1117" fill="url(#paint0_radial_107_12)"/>
</g>
<g filter="url(#filter0_f_107_12)">
<path d="M824.998 221.351C185.928 -102.884 721.645 -448.253 1264.49 -238.067L2297.97 265.58C2026.03 896.753 1979.52 1999.72 1763.27 1908.28C1264.07 1813.85 1115.18 1487.07 1168.67 1159.82C1233.65 762.266 1464.07 545.586 824.998 221.351Z" fill="url(#paint1_radial_107_12)"/>
</g>
<g filter="url(#filter1_f_107_12)">
<path d="M-750 154.426C-740.504 194.852 -722.819 250.687 -697.821 302.958C-603.179 552.535 -383.74 1047.82 -71.9988 1242.6C407.873 1542.41 1201.36 1472.17 1375.83 1298.46C1550.31 1124.75 1349.83 546.39 940.82 746.542C429.564 996.732 284.207 673.987 -15.6961 348.74C-315.6 23.4937 -386.607 435.473 -531.964 449.65C-602.669 456.546 -659.044 384.041 -697.821 302.958C-732.093 212.582 -750 154.426 -750 154.426Z" fill="url(#paint2_linear_107_12)" fill-opacity="0.6"/>
</g>
<g filter="url(#filter2_f_107_12)">
<ellipse cx="1337.75" cy="762.91" rx="654.992" ry="554.489" fill="url(#paint3_linear_107_12)" fill-opacity="0.6"/>
</g>
<g filter="url(#filter3_f_107_12)">
<ellipse cx="169.907" cy="530.112" rx="254.167" ry="215.167" fill="url(#paint4_linear_107_12)"/>
</g>
<defs>
<filter id="filter0_f_107_12" x="334.08" y="-502.334" width="2163.89" height="2615.96" filterUnits="userSpaceOnUse" color-interpolation-filters="sRGB">
<feFlood flood-opacity="0" result="BackgroundImageFix"/>
<feBlend mode="normal" in="SourceGraphic" in2="BackgroundImageFix" result="shape"/>
<feGaussianBlur stdDeviation="100" result="effect1_foregroundBlur_107_12"/>
</filter>
<filter id="filter1_f_107_12" x="-1006.45" y="-102.019" width="2701.89" height="1806.6" filterUnits="userSpaceOnUse" color-interpolation-filters="sRGB">
<feFlood flood-opacity="0" result="BackgroundImageFix"/>
<feBlend mode="normal" in="SourceGraphic" in2="BackgroundImageFix" result="shape"/>
<feGaussianBlur stdDeviation="128.223" result="effect1_foregroundBlur_107_12"/>
</filter>
<filter id="filter2_f_107_12" x="382.759" y="-91.5786" width="1909.98" height="1708.98" filterUnits="userSpaceOnUse" color-interpolation-filters="sRGB">
<feFlood flood-opacity="0" result="BackgroundImageFix"/>
<feBlend mode="normal" in="SourceGraphic" in2="BackgroundImageFix" result="shape"/>
<feGaussianBlur stdDeviation="150" result="effect1_foregroundBlur_107_12"/>
</filter>
<filter id="filter3_f_107_12" x="-384.259" y="14.9453" width="1108.33" height="1030.33" filterUnits="userSpaceOnUse" color-interpolation-filters="sRGB">
<feFlood flood-opacity="0" result="BackgroundImageFix"/>
<feBlend mode="normal" in="SourceGraphic" in2="BackgroundImageFix" result="shape"/>
<feGaussianBlur stdDeviation="150" result="effect1_foregroundBlur_107_12"/>
</filter>
<radialGradient id="paint0_radial_107_12" cx="0" cy="0" r="1" gradientUnits="userSpaceOnUse" gradientTransform="translate(864 558.5) rotate(90) scale(558.5 864)">
<stop stop-color="#7000A8"/>
<stop offset="1" stop-color="#622A88"/>
</radialGradient>
<radialGradient id="paint1_radial_107_12" cx="0" cy="0" r="1" gradientUnits="userSpaceOnUse" gradientTransform="translate(960.401 293.687) rotate(89.6583) scale(1518.56 1149.23)">
<stop stop-color="#8338A8"/>
<stop offset="1" stop-color="#1F1144"/>
</radialGradient>
<linearGradient id="paint2_linear_107_12" x1="1085.04" y1="452.104" x2="212.003" y2="1290.27" gradientUnits="userSpaceOnUse">
<stop stop-color="#B3E8FF"/>
<stop offset="0.676119" stop-color="#F7CBD8"/>
<stop offset="1" stop-color="#BB5562"/>
</linearGradient>
<linearGradient id="paint3_linear_107_12" x1="1337.94" y1="307.773" x2="-264.967" y2="963.878" gradientUnits="userSpaceOnUse">
<stop stop-color="#7000FF"/>
<stop offset="1" stop-color="#FF00A8" stop-opacity="0"/>
</linearGradient>
<linearGradient id="paint4_linear_107_12" x1="-31.7152" y1="344.6" x2="251.394" y2="790.754" gradientUnits="userSpaceOnUse">
<stop stop-color="#5736B5"/>
<stop offset="1" stop-color="#613EFF"/>
</linearGradient>
</defs>
</svg>